<svg width="246" height="245" viewBox="0 0 246 245" fill="none" xmlns="http://www.w3.org/2000/svg">
<path fill-rule="evenodd" clip-rule="evenodd" d="M155.546 45.882C150.506 41.4886 142.943 41.5407 137.917 45.8996C133.876 49.4042 128.699 51.334 123.337 51.334C117.977 51.334 112.8 49.4039 108.761 45.8997C103.73 41.5372 96.1663 41.492 91.1264 45.8848L91.1011 45.9069L91.0761 45.9293C75.8016 59.6041 74.0625 75.6514 74.5243 85.0745L68.3124 89.6665C62.7419 93.7139 59.4248 100.216 59.4248 107.086V115.365C59.4248 141.952 69.8585 168.244 87.2265 183.904C100.422 195.801 112.028 202.371 123.335 202.391H123.353C134.65 202.371 146.256 195.8 159.449 183.904C176.819 168.244 187.251 141.951 187.251 115.365V107.086C187.251 100.223 183.941 93.7179 178.389 89.6858L172.161 85.082C172.599 75.3358 170.517 59.2057 155.586 45.9167L155.566 45.8993L155.546 45.882Z" fill="white"/>
<path fill-rule="evenodd" clip-rule="evenodd" d="M120.426 79.1178C119.75 78.4254 118.849 77.5041 117.529 76.2995C108.598 68.1543 96.7943 65.902 87.338 72.2882C89.2993 65.4564 93.1973 59.246 98.6803 54.4676C99.3934 53.8463 100.488 53.8613 101.229 54.503C107.378 59.8169 115.033 62.745 123.337 62.745C131.641 62.745 139.317 59.8169 145.446 54.503C146.185 53.8613 147.281 53.8463 147.994 54.4676C153.477 59.246 157.375 65.4564 159.337 72.2882C149.88 65.902 138.077 68.1543 129.146 76.2995C127.825 77.5041 126.925 78.4254 126.248 79.1178C124.912 80.4862 124.448 80.9607 123.337 80.9607C122.227 80.9607 121.763 80.4862 120.426 79.1178ZM93.3627 114.447C100.296 120.927 109.114 124.899 118.649 125.887C122.645 132.66 124.844 141.186 124.844 150.008C124.844 163.611 119.176 176.614 109.264 185.949C104.984 183.412 100.295 179.842 95.1461 175.198C86.5972 167.491 79.9303 156.552 75.8284 144.127L93.3627 114.447Z" fill="#32466E"/>
<path d="M96.8497 91.2196C96.8497 87.5789 99.1655 84.6168 102.012 84.6168C104.859 84.6168 107.174 87.5789 107.174 91.2196C107.174 94.8617 104.859 97.8225 102.012 97.8225C99.1655 97.8225 96.8497 94.8617 96.8497 91.2196Z" fill="#081736"/>
<path d="M123.322 95.5633C125.77 95.5633 127.529 97.3223 127.7 99.9397C127.726 100.329 127.738 100.729 127.738 101.126C127.738 105.296 126.895 108.695 124.919 112.494L124.844 112.64C124.558 113.204 124.125 114.054 123.322 114.054C122.522 114.054 122.09 113.208 121.802 112.645L121.8 112.64L121.726 112.494C119.748 108.695 118.906 105.296 118.906 101.126C118.906 100.729 118.919 100.329 118.945 99.9397C119.114 97.3223 120.874 95.5633 123.322 95.5633Z" fill="#081736"/>
<path d="M151.31 90.1892C150.63 88.035 148.631 86.3741 146.336 86.058C143.131 85.6165 139.873 87.5309 137.619 91.1757C136.941 92.2671 137.249 93.1922 137.764 93.6923C138.116 94.0356 138.585 94.2237 139.118 94.2359C139.13 94.2373 139.141 94.2373 139.152 94.2373C139.782 94.2373 140.366 93.8243 140.796 93.5207L140.8 93.5179L140.994 93.383C143.318 91.8161 145.275 91.703 147.343 93.0124C148.488 93.7372 149.67 93.8081 150.507 93.2004C151.372 92.5696 151.688 91.3869 151.31 90.1892Z" fill="#081736"/>
<path fill-rule="evenodd" clip-rule="evenodd" d="M166.91 87.476L175.389 93.7437C179.637 96.8217 182.188 101.817 182.188 107.086V115.364C182.188 140.8 172.174 165.632 156.05 180.169C143.067 191.876 132.673 197.336 123.343 197.352C114.001 197.336 103.608 191.876 90.6228 180.169C74.501 165.632 64.4849 140.8 64.4849 115.364V107.086C64.4849 101.817 67.0375 96.8217 71.3105 93.7246L79.78 87.4638C78.9574 79.5475 79.1791 63.3551 94.4592 49.6752C97.5716 46.9624 102.291 46.972 105.435 49.6984C110.396 54.0026 116.754 56.3721 123.336 56.3721C129.919 56.3721 136.277 54.0026 141.24 49.6984C144.382 46.9733 149.1 46.9611 152.211 49.6725C167.064 62.8918 167.775 79.1728 166.91 87.476ZM123.343 190.644C128.174 190.638 133.76 188.493 140.228 184.163C151.361 175.057 159.683 156.693 159.683 141.015C159.683 131.896 157.203 123.1 152.499 115.385C145.245 121.734 136.069 125.449 126.186 126.044C129.587 133.14 131.433 141.473 131.433 150.008C131.433 164.613 125.667 178.602 115.508 189.026C118.316 190.098 120.924 190.642 123.343 190.644ZM95.1449 175.199C100.295 179.841 104.983 183.411 109.264 185.949C119.176 176.614 124.843 163.612 124.843 150.008C124.843 141.184 122.645 132.659 118.65 125.887C109.114 124.899 100.295 120.928 93.3629 114.447L75.8286 144.126C79.9292 156.552 86.5975 167.491 95.1449 175.199ZM129.114 85.757C127.04 88.2675 125.417 90.2324 123.336 90.2324C121.255 90.2324 119.633 88.2682 117.56 85.7584C116.706 84.7233 115.774 83.5953 114.702 82.4742C108.098 75.468 99.6562 73.7144 93.5176 76.1452C88.2741 78.2217 85.7571 83.0151 86.4538 89.1261C87.7513 96.7372 91.2825 103.658 96.734 109.059C103.701 115.963 113.052 119.764 123.336 119.764C133.622 119.764 142.973 115.963 149.939 109.059C155.389 103.658 158.921 96.7372 160.219 89.1261C160.915 83.0151 158.399 78.2217 153.154 76.1452C147.018 73.7144 138.576 75.468 131.971 82.4742C130.9 83.5949 129.968 84.7223 129.114 85.757ZM145.444 54.5027C139.317 59.8166 131.64 62.7447 123.336 62.7447C115.032 62.7447 107.378 59.8166 101.229 54.5027C100.488 53.8609 99.3934 53.8459 98.6803 54.4673C93.1973 59.2457 89.2993 65.4561 87.3379 72.2879C96.7942 65.9017 108.596 68.1553 117.529 76.2992C118.848 77.5024 119.747 78.4231 120.423 79.1153C121.762 80.4853 122.226 80.9604 123.337 80.9604C124.448 80.9604 124.912 80.4858 126.248 79.1175C126.925 78.425 127.825 77.5037 129.146 76.2992C138.077 68.1553 149.879 65.9017 159.337 72.2879C157.375 65.4561 153.476 59.2457 147.994 54.4673C147.281 53.8459 146.185 53.8609 145.444 54.5027Z" fill="#081736"/>
</svg>
