<svg width="25" height="32" viewBox="0 0 25 32" fill="none" xmlns="http://www.w3.org/2000/svg">
<path fill-rule="evenodd" clip-rule="evenodd" d="M18.7993 0.655687C17.8134 -0.224187 16.3344 -0.213758 15.3513 0.659209C14.561 1.36109 13.5485 1.74757 12.4999 1.74757C11.4515 1.74757 10.439 1.36103 9.649 0.65923C8.66516 -0.21445 7.18584 -0.223511 6.20014 0.656253L6.19519 0.660673L6.1903 0.665159C3.20295 3.40384 2.86281 6.61767 2.95314 8.50486L1.73822 9.42451C0.648742 10.2351 0 11.5373 0 12.9132V14.5712C0 19.8957 2.04061 25.1614 5.4374 28.2977C8.0181 30.6803 10.288 31.9962 12.4995 32.0001H12.5029C14.7124 31.9962 16.9823 30.6802 19.5626 28.2977C22.9597 25.1613 25 19.8957 25 14.5712V12.9132C25 11.5386 24.3526 10.2359 23.2669 9.42836L22.0488 8.50635C22.1345 6.55446 21.7273 3.32405 18.807 0.662638L18.8032 0.659142L18.7993 0.655687ZM22.703 14.5621C22.703 17.9785 21.7661 21.3237 20.1568 23.9226C20.6352 22.5383 20.9074 21.083 20.9074 19.6993C20.9074 17.5165 20.2965 15.4146 19.1391 13.5964C19.9052 12.6653 20.462 11.5176 20.7618 10.4449L21.9102 11.3143C22.4139 11.6881 22.703 12.2675 22.703 12.9041V14.5621ZM15.8139 28.3405C14.5488 29.2077 13.4563 29.6372 12.5114 29.6386C12.0384 29.638 11.5282 29.5292 10.9792 29.3144C12.9659 27.2269 14.0937 24.4253 14.0937 21.5003C14.0937 19.791 13.7326 18.122 13.0674 16.7009C15.0004 16.5817 16.7949 15.8378 18.2137 14.5662C19.1337 16.1112 19.6188 17.8729 19.6188 19.6993C19.6188 22.839 17.9912 26.5169 15.8139 28.3405ZM2.31764 14.5621V12.9041C2.31764 12.2675 2.60648 11.6879 3.11562 11.3102L4.27657 10.4315C4.57799 11.4936 5.07267 12.4874 5.73868 13.3628L2.74407 18.5529C2.46567 17.2619 2.31764 15.9177 2.31764 14.5621ZM12.5101 9.52885C12.9171 9.52885 13.2345 9.13532 13.6401 8.63255C13.8072 8.42532 13.9894 8.19953 14.1989 7.97509C15.4908 6.57195 17.1419 6.22076 18.3419 6.70757C19.3677 7.12344 19.8597 8.08342 19.7237 9.30728C19.4697 10.8316 18.779 12.2175 17.7131 13.2992C16.3506 14.6819 14.5217 15.4432 12.5101 15.4432C10.4987 15.4432 8.66984 14.6819 7.30732 13.2992C6.24113 12.2175 5.55049 10.8316 5.29673 9.30728C5.16047 8.08342 5.65275 7.12344 6.67826 6.70757C7.87883 6.22076 9.52992 6.57195 10.8215 7.97509C11.0311 8.19963 11.2133 8.42551 11.3805 8.63281C11.7859 9.13546 12.1032 9.52885 12.5101 9.52885ZM22.6905 10.2321L21.0321 8.97682C21.2013 7.31391 21.0624 4.05329 18.1575 1.40583C17.549 0.862801 16.6263 0.865257 16.0117 1.41101C15.041 2.27303 13.7976 2.74757 12.5101 2.74757C11.2228 2.74757 9.97937 2.27303 9.009 1.41101C8.39413 0.864984 7.47114 0.863074 6.86242 1.40637C3.87397 4.14607 3.83061 7.38895 3.99149 8.97437L2.33504 10.2282C1.49933 10.8485 1.00009 11.8489 1.00009 12.9041V14.5621C1.00009 19.6562 2.95902 24.6294 6.1121 27.5407C8.65164 29.8853 10.6845 30.9787 12.5114 30.982C14.3362 30.9787 16.369 29.8853 18.9083 27.5407C22.0617 24.6294 24.0203 19.6562 24.0203 14.5621V12.9041C24.0203 11.8489 23.5214 10.8485 22.6905 10.2321ZM8.3397 8.4043C7.78291 8.4043 7.32999 8.99753 7.32999 9.72666C7.32999 10.4561 7.78291 11.049 8.3397 11.049C8.89649 11.049 9.34914 10.4561 9.34914 9.72666C9.34914 8.99753 8.89649 8.4043 8.3397 8.4043ZM12.5074 10.5966C12.9863 10.5966 13.3303 10.9488 13.3637 11.473C13.3688 11.5511 13.3712 11.631 13.3712 11.7107C13.3712 12.5457 13.2063 13.2266 12.8198 13.9873L12.8051 14.0165C12.7491 14.1295 12.6645 14.2998 12.5074 14.2998C12.351 14.2998 12.2665 14.1303 12.2102 14.0176L12.2097 14.0165L12.1953 13.9873C11.8085 13.2266 11.6438 12.5457 11.6438 11.7107C11.6438 11.631 11.6462 11.5511 11.6513 11.473C11.6845 10.9488 12.0288 10.5966 12.5074 10.5966ZM17.9813 9.52019C17.8482 9.08877 17.4574 8.75614 17.0085 8.69283C16.3816 8.60442 15.7445 8.98781 15.3036 9.71776C15.1711 9.93633 15.2313 10.1216 15.332 10.2218C15.4008 10.2905 15.4926 10.3282 15.5967 10.3306C15.5991 10.3309 15.6013 10.3309 15.6034 10.3309C15.7267 10.3309 15.8417 10.2476 15.9257 10.1868L15.9637 10.1598C16.4182 9.84601 16.801 9.82336 17.2055 10.0856C17.4293 10.2308 17.6606 10.245 17.8241 10.1233C17.9933 9.99691 18.0551 9.76005 17.9813 9.52019Z" fill="white"/>
</svg>